<svg xmlns="http://www.w3.org/2000/svg" height="24px" viewBox="0 0 24 24" width="24px">
    <path d="M19.1 10.55 v8.65 h-13.7 v-8.9 l-0.5 -1.85 l13.2 -3.7 l0.65 2.25 l-12 3.36 l0.2 0.19" fill="#040c17"/>
    <path d="M5.63 10.24 a0.225 0.225 0 1 0 0.45 0 a0.225 0.225 0 1 0 -0.45 0 M19.1 10.55 l-1.3 2.35 h-1.65 l1.3 -2.35 m-1.7 0 l-1.3 2.35 h-1.65 l1.3 -2.35 m-1.7 0 l-1.3 2.35 h-1.65 l1.3 -2.35 m-1.7 0 l-1.3 2.35 h-1.65 l1.3 -2.35 M18.746 6.998 l-1.66 0.465 l-1.85 -1.905 l1.62 -0.455 m-1.3 2.789 l-1.66 0.465 l-1.85 -1.905 l1.62 -0.455 m-1.3 2.789 l-1.66 0.465 l-1.85 -1.905 l1.62 -0.455 m-1.3 2.789 l-1.66 0.465 l-1.85 -1.905 l1.62 -0.455 M6.33 17 h11.73 v-0.1 h-11.73 M7.24 16.52 h0.535 v-0.62 h0.8 v-0.4 h-0.8 v-0.4 h0.9 v-0.4 h-1.435 m1.66 1.82 h0.52 v-1.94 h-0.53 m0.82 1.94 h0.5 v-1.42 h-0.5 m0 -0.41 a0.25 0.25 0 1 0 0.5 0 a0.25 0.25 0 1 0 -0.5 0z m0.66 1.83 h0.59 l0.21 -0.35 l0.21 0.35 h0.59 l-0.54 -0.72 l0.54 -0.7 h-0.59 l-0.21 0.35 l-0.21 -0.35 h-0.59 l0.54 0.7 m1.27 0.7 h1.05 q0.65 0 0.68 -0.465 q0 -0.35 -0.33 -0.48 q0.24 -0.1 0.26 -0.38 q0 -0.46 -0.6 -0.48 h-1.06 m0.51 0.36 h0.4 q0.22 0 0.22 0.18 q0 0.18 -0.22 0.18 h-0.4 m0 0.35 h0.48 q0.22 0 0.22 0.18 q0 0.18 -0.22 0.18 h-0.48 m1.39 -0.32 a0.5 0.45 0 1 0 1.6 0 a0.5 0.45 0 1 0 -1.6 0 m1.64 0.72 h0.59 l0.21 -0.35 l0.21 0.35 h0.59 l-0.54 -0.72 l0.54 -0.7 h-0.59 l-0.21 0.35 l-0.21 -0.35 h-0.59 l0.54 0.7" fill="#fcba03"/>
    <path d="M5.73 10.24 a0.125 0.125 0 1 0 0.25 0 a0.125 0.125 0 1 0 -0.25 0 M14.58 15.81 a0.3 0.33 0 1 0 0.6 0 a0.3 0.33 0 1 0 -0.6 0" fill="#040c17"/>
</svg>